<svg width="210" height="210" viewBox="0 0 210 210" fill="none" xmlns="http://www.w3.org/2000/svg">
<rect width="210" height="210" fill="white"/>
<path d="M7 99.8289H12.165V104.131H12.301C13.3884 102.383 14.6117 101.173 16.1068 100.367C17.6019 99.56 19.5049 99.1567 21.6796 99.1567C23.4466 99.1567 25.0777 99.56 26.5728 100.501C28.2039 101.442 29.2913 102.921 30.1068 104.937C30.6505 103.862 31.1942 103.055 32.0097 102.249C32.8252 101.577 33.6408 100.904 34.4563 100.501C35.2718 100.098 36.2233 99.6945 37.0388 99.56L39.3495 99.2912C41.2524 99.2912 42.8835 99.56 44.2427 100.098C45.6019 100.635 46.5534 101.442 47.3689 102.518C48.1845 103.459 48.7282 104.668 49.1359 106.013C49.5437 107.357 49.6796 108.836 49.6796 110.449V129.404H44.2427V111.793C44.2427 110.852 44.1068 109.911 43.9709 108.97C43.835 108.029 43.5631 107.088 43.1553 106.282C42.7476 105.475 42.2039 104.803 41.5243 104.265C40.8447 103.727 39.8932 103.459 38.8058 103.459C37.4466 103.459 36.2233 103.727 35.2718 104.4C34.3261 105.066 33.4992 105.884 32.8252 106.819C32.1456 107.895 31.7379 108.97 31.466 110.315C31.1942 111.659 31.0583 113.003 31.0583 114.348V129.404H25.6214V111.793C25.6214 110.852 25.4854 109.911 25.3495 108.97C25.2136 108.029 24.9417 107.088 24.534 106.282C24.1262 105.475 23.5825 104.803 22.9029 104.265C22.2233 103.727 21.2718 103.459 20.1845 103.459C18.8252 103.459 17.6019 103.727 16.6505 104.4C15.699 105.072 14.8835 105.878 14.3398 106.954C13.6602 108.029 13.2524 109.105 12.9806 110.449C12.7087 111.793 12.5728 113.138 12.5728 114.482V129.404H7V99.8289ZM57.5631 101.98C58.9223 101.173 60.4175 100.501 62.0485 99.9633C63.6796 99.4256 65.4466 99.1567 67.3495 99.1567C71.699 99.1567 74.6893 100.232 76.5922 102.249C78.4952 104.265 79.3107 107.357 79.3107 111.39V127.522C79.3107 128.328 79.4466 129.001 79.4466 129.404H74.2816V125.64H74.1456C73.8738 126.043 73.466 126.581 72.9223 127.119C72.3786 127.656 71.699 128.06 71.0194 128.597C70.2039 129.001 69.3884 129.404 68.4369 129.673C67.4854 129.942 66.2621 130.076 65.0388 130.076C63.4078 130.076 61.9126 129.942 60.5534 129.538C59.1942 129.135 58.1068 128.597 57.0194 127.925C56.068 127.119 55.2524 126.178 54.7087 125.102C54.1651 123.892 53.8932 122.548 53.8932 120.935C53.8932 119.053 54.301 117.574 55.2524 116.364C56.2039 115.154 57.2913 114.079 58.6505 113.407C60.0097 112.6 61.5049 112.062 63.1359 111.793C64.767 111.524 66.2621 111.256 67.7573 111.256H70.7476L73.7379 111.39C73.7379 108.836 73.1942 106.954 72.1068 105.609C71.0194 104.265 69.1165 103.727 66.3981 103.727C64.8224 103.734 63.2593 104.006 61.7767 104.534C60.2816 105.072 58.9223 105.744 57.699 106.685L57.5631 101.98ZM73.8738 115.289H70.3398L67.4854 115.423C66.2621 115.557 65.1748 115.826 64.0874 116.095C63 116.498 62.0485 117.036 61.233 117.843C60.4175 118.649 60.0097 119.59 60.0097 120.935C60.0097 121.741 60.1456 122.413 60.5534 122.951C60.9612 123.489 61.3689 124.027 61.9126 124.43C62.4563 124.833 63 125.102 63.6796 125.371C64.3592 125.64 65.0388 125.64 65.5825 125.64C68.301 125.64 70.3398 124.833 71.835 123.354C73.1942 121.876 73.8738 119.994 73.8738 117.843V115.289ZM92.4952 113.944L82.7087 99.8289H89.5049L96.0291 110.315L102.689 99.8289H108.806L99.1553 113.944L109.757 129.404H102.961L95.6214 117.843L88.2816 129.404H81.7573L92.4952 113.944ZM112.884 99.8289H118.32V129.404H112.884V99.8289ZM125.388 99.8289H130.553V104.131H130.689C131.777 102.383 133 101.173 134.495 100.367C136.126 99.56 137.893 99.1567 140.204 99.1567C141.971 99.1567 143.602 99.56 145.097 100.501C146.728 101.442 147.816 102.921 148.631 104.937C149.175 103.862 149.718 103.055 150.534 102.249C151.35 101.577 152.165 100.904 152.981 100.501C153.796 100.098 154.748 99.6945 155.563 99.56L157.874 99.2912C159.777 99.2912 161.408 99.56 162.767 100.098C164.126 100.635 165.078 101.442 165.893 102.518C166.709 103.459 167.252 104.668 167.66 106.013C168.068 107.357 168.204 108.836 168.204 110.449V129.404H162.631V111.793L162.495 108.97C162.359 108.029 162.087 107.088 161.68 106.282C161.272 105.475 160.728 104.803 160.049 104.265C159.369 103.727 158.417 103.459 157.33 103.459C155.971 103.459 154.748 103.727 153.796 104.4C152.85 105.066 152.023 105.884 151.35 106.819C150.67 107.895 150.262 108.97 149.99 110.315C149.718 111.659 149.583 113.003 149.583 114.348V129.404H144.146V111.793C144.146 110.852 144.01 109.911 143.874 108.97C143.738 108.029 143.466 107.088 143.058 106.282C142.65 105.475 142.107 104.803 141.427 104.265C140.748 103.727 139.796 103.459 138.709 103.459C137.35 103.459 136.126 103.727 135.175 104.4C134.229 105.066 133.402 105.884 132.728 106.819C132.049 107.895 131.641 108.97 131.369 110.315C131.097 111.659 130.961 113.003 130.961 114.348V129.404H125.524V99.8289H125.388ZM172.553 114.616C172.553 112.331 172.961 110.315 173.641 108.433C174.32 106.55 175.408 104.937 176.767 103.593C178.126 102.249 179.757 101.173 181.524 100.367C183.427 99.56 185.466 99.1567 187.777 99.1567C190.087 99.1567 192.126 99.56 194.029 100.367C195.932 101.173 197.563 102.249 198.786 103.593C200.146 104.937 201.097 106.55 201.913 108.433C202.592 110.315 203 112.331 203 114.616C202.993 116.68 202.625 118.727 201.913 120.666C201.233 122.548 200.146 124.161 198.786 125.64C197.427 126.984 195.796 128.194 194.029 129.001C192.126 129.807 190.087 130.211 187.913 130.211C185.602 130.211 183.563 129.807 181.796 129.001C179.893 128.194 178.398 127.119 177.039 125.64C175.68 124.296 174.592 122.548 173.913 120.666C172.961 118.784 172.553 116.767 172.553 114.616ZM178.534 114.616C178.534 115.961 178.67 117.305 179.078 118.515C179.485 119.859 180.029 121.069 180.709 122.01C181.524 123.086 182.476 123.892 183.563 124.564C184.786 125.237 186.146 125.505 187.777 125.505C189.408 125.505 190.767 125.237 191.99 124.564C193.214 123.892 194.165 123.086 194.845 122.01C195.632 120.972 196.188 119.781 196.476 118.515C196.883 117.171 197.019 115.826 197.019 114.616C197.019 113.272 196.748 111.928 196.34 110.583C195.932 109.239 195.252 108.029 194.573 107.088C193.757 106.013 192.806 105.206 191.583 104.534C190.359 103.862 189.136 103.593 187.641 103.593C186.146 103.593 184.786 103.862 183.699 104.534C182.612 105.206 181.524 106.013 180.709 107.088C179.893 108.164 179.35 109.374 178.806 110.583L178.534 114.616Z" fill="black"/>
<path d="M16.7801 88.6003C16.7801 87.5845 15.8352 86.7719 14.5527 86.7719C13.0003 86.7719 12.1228 87.449 11.9203 88.6003H16.7801ZM11.8529 90.7673C11.9878 91.9862 12.8653 92.8665 14.4852 92.8665C15.2952 92.8665 16.2402 92.5957 16.6451 92.1216H21.4375C20.425 94.4241 17.5901 95.5076 14.5527 95.5076C10.2329 95.5076 7.06055 93.476 7.06055 89.8869C7.06055 86.7719 9.89543 84.1986 14.1478 84.1986C19.48 84.1986 21.7749 86.5687 21.7749 90.7673H11.8529ZM28.4572 90.2255C28.4572 90.6318 28.5247 90.9704 28.6597 91.2413C29.0646 92.1216 30.2796 92.3248 31.3595 92.3248C32.3045 92.3248 33.7219 92.0539 33.7219 90.9704C33.7219 90.1578 32.912 89.9546 29.7396 89.2774C26.8372 88.6003 23.4624 87.9231 23.4624 84.9435C23.4624 81.4898 27.1072 80 30.8871 80C34.8694 80 38.4467 81.2189 38.5817 84.8757H33.182C33.317 84.334 32.9795 83.9277 32.507 83.6568C32.0345 83.3859 31.427 83.2505 30.8196 83.2505C30.0771 83.2505 28.7946 83.3859 28.7946 84.2663C28.9296 85.3498 31.562 85.5529 34.1269 86.1624C36.7593 86.7719 39.3242 87.7199 39.3242 90.4964C39.3242 94.4241 34.9369 95.643 30.8196 95.643C28.7271 95.643 22.7874 95.0335 22.7199 90.2255H28.4572Z" fill="black"/>
<path d="M48.5998 87.0148C46.6338 87.0148 46.3627 88.558 46.3627 89.7506C46.3627 90.9431 46.6338 92.5565 48.5998 92.5565C50.5657 92.5565 50.8369 90.9431 50.8369 89.7506C50.8369 88.558 50.5657 87.0148 48.5998 87.0148ZM48.5998 95.643C43.5154 95.643 41.2783 92.8371 41.2783 89.7506C41.2783 86.6641 43.5832 83.8581 48.5998 83.8581C53.6841 83.8581 55.9212 86.5939 55.9212 89.7506C55.9212 92.8371 53.6841 95.643 48.5998 95.643ZM58.2939 80H63.4461V95.4325H58.2939V80ZM80.3261 95.3624H75.3773V93.9594H75.3095C74.3605 95.0818 73.0046 95.643 70.9031 95.643C68.4626 95.643 66.2933 94.3803 66.2933 91.855V84.2089H71.4454V90.0312C71.4454 91.2938 71.6488 92.2057 73.1402 92.2057C74.0215 92.2057 75.174 91.855 75.174 90.0312V84.2089H80.3261V95.3624ZM108.663 87.0148C106.697 87.0148 106.426 88.558 106.426 89.7506C106.426 90.9431 106.697 92.5565 108.663 92.5565C110.629 92.5565 110.832 90.9431 110.832 89.7506C110.9 88.558 110.629 87.0148 108.663 87.0148ZM108.663 95.643C103.578 95.643 101.341 92.8371 101.341 89.7506C101.341 86.6641 103.646 83.8581 108.663 83.8581C113.747 83.8581 115.984 86.5939 115.984 89.7506C115.984 92.8371 113.747 95.643 108.663 95.643ZM118.221 84.2089H123.17V85.6118H123.238C124.187 84.4895 125.543 83.9283 127.644 83.9283C130.085 83.9283 132.254 85.1909 132.254 87.7163V95.3624H127.102V89.47C127.102 88.2073 126.899 87.2954 125.407 87.2954C124.526 87.2954 123.374 87.6461 123.374 89.47V95.3624H118.221V84.2089ZM142.83 87.4357C142.83 87.0849 142.558 86.8044 142.22 86.5939C141.881 86.3835 141.474 86.2432 141.067 86.2432C140.321 86.2432 139.508 86.3835 139.508 87.0849C139.508 87.4357 139.847 87.576 140.118 87.6461C140.999 87.9267 142.897 88.067 144.66 88.4879C146.355 88.9088 147.846 89.7506 147.846 91.6446C147.846 94.7311 144.253 95.5728 140.999 95.5728C137.813 95.5728 134.356 94.5206 134.288 91.6446H139.169C139.169 92.0654 139.372 92.346 139.779 92.6266C140.05 92.8371 140.525 92.9774 141.135 92.9774C141.813 92.9774 142.897 92.7669 142.897 92.1356C142.897 91.5043 142.423 91.2938 140.05 90.9431C136.118 90.3819 134.559 89.3297 134.559 87.4357C134.559 84.6298 138.22 83.8581 140.931 83.8581C143.847 83.8581 147.372 84.5596 147.439 87.3655H142.83V87.4357ZM94.5623 87.7163H99.4432V88.4879H94.5623V87.7163ZM94.5623 84.2089H99.4432V85.0507H94.5623V84.2089ZM94.5623 89.47H99.4432V90.2416H94.5623V89.47ZM94.5623 80H99.4432V83.0164H94.5623V80ZM94.5623 91.2237H99.4432V95.3624H94.5623V91.2237ZM94.5623 86.0327H99.4432V86.8044H94.5623V86.0327Z" fill="black"/>
<path d="M84.1678 82.2197L89.2751 80V84.2314H92.0477V87.2835H89.2021V91.3762C89.2021 91.3762 88.9833 93.2491 91.8288 92.3473L92.1206 95.2608C92.1206 95.2608 83.73 97.3418 84.1678 91.7924V87.2142H82.3438V84.3008H84.0948L84.1678 82.2197Z" fill="black"/>
</svg>
