<svg width="210" height="210" viewBox="0 0 210 210" fill="none" xmlns="http://www.w3.org/2000/svg">
<rect width="210" height="210" fill="white"/>
<path d="M65.9192 105.668L90.477 91.4573C96.2113 88.0914 98.206 80.7366 94.8401 75.0022C91.4743 69.2679 84.1195 67.2734 78.3848 70.6392L36.001 95.0724L65.9192 105.668Z" fill="#EA4335"/>
<path d="M84.3701 142.069C88.4838 142.069 92.5975 139.95 94.8413 136.085C98.2071 130.351 96.2128 122.996 90.4781 119.63L48.0943 95.1973C42.36 91.8315 35.0048 93.826 31.639 99.5603C28.2735 105.295 30.2678 112.65 36.0021 116.015L78.3863 140.448C80.2563 141.571 82.3753 142.069 84.3701 142.069Z" fill="#4285F4"/>
<path d="M126.505 142.068C128.5 142.068 130.619 141.57 132.489 140.447L174.873 116.014L145.329 105.169L120.397 119.505C114.663 122.87 112.668 130.226 116.034 135.96C118.278 139.949 122.392 142.068 126.505 142.068Z" fill="#FBBC04"/>
<path d="M168.889 117.637C173.003 117.637 177.117 115.517 179.361 111.653C182.727 105.919 180.732 98.5637 174.998 95.1978L132.614 70.7646C126.879 67.3988 119.525 69.3934 116.159 75.1277C112.793 80.8621 114.787 88.2169 120.522 91.5827L162.906 116.016C164.776 117.138 166.895 117.637 168.889 117.637Z" fill="#34A853"/>
</svg>
