<svg width="210" height="210" viewBox="0 0 210 210" fill="none" xmlns="http://www.w3.org/2000/svg">
<rect width="210" height="210" fill="white"/>
<path d="M17.3503 133.204H19.6792V133.91H16.4817V127.258H17.3503V133.204ZM19.7521 131.276C19.7521 130.741 19.8603 130.274 20.0766 129.873C20.2929 129.466 20.5888 129.151 20.9642 128.928C21.346 128.705 21.7692 128.594 22.2337 128.594C22.6918 128.594 23.0895 128.692 23.4267 128.89C23.764 129.087 24.0153 129.335 24.1808 129.634V128.68H25.0589V133.91H24.1808V132.937C24.009 133.242 23.7512 133.497 23.4076 133.7C23.0704 133.897 22.6759 133.996 22.2241 133.996C21.7596 133.996 21.3397 133.882 20.9642 133.652C20.5888 133.423 20.2929 133.102 20.0766 132.688C19.8603 132.275 19.7521 131.804 19.7521 131.276ZM24.1808 131.285C24.1808 130.891 24.1012 130.547 23.9421 130.255C23.7831 129.962 23.5667 129.739 23.2931 129.586C23.0259 129.427 22.73 129.348 22.4055 129.348C22.081 129.348 21.7851 129.424 21.5178 129.577C21.2506 129.73 21.0374 129.952 20.8783 130.245C20.7193 130.538 20.6397 130.881 20.6397 131.276C20.6397 131.677 20.7193 132.027 20.8783 132.326C21.0374 132.618 21.2506 132.844 21.5178 133.003C21.7851 133.156 22.081 133.232 22.4055 133.232C22.73 133.232 23.0259 133.156 23.2931 133.003C23.5667 132.844 23.7831 132.618 23.9421 132.326C24.1012 132.027 24.1808 131.68 24.1808 131.285ZM26.8702 129.653C27.0484 129.341 27.3093 129.087 27.6529 128.89C27.9965 128.692 28.3878 128.594 28.8269 128.594C29.2977 128.594 29.7209 128.705 30.0963 128.928C30.4717 129.151 30.7676 129.466 30.9839 129.873C31.2003 130.274 31.3084 130.741 31.3084 131.276C31.3084 131.804 31.2003 132.275 30.9839 132.688C30.7676 133.102 30.4685 133.423 30.0867 133.652C29.7113 133.882 29.2914 133.996 28.8269 133.996C28.3751 133.996 27.9774 133.897 27.6338 133.7C27.2966 133.503 27.042 133.252 26.8702 132.946V133.91H26.0017V126.847H26.8702V129.653ZM30.4208 131.276C30.4208 130.881 30.3413 130.538 30.1822 130.245C30.0231 129.952 29.8068 129.73 29.5332 129.577C29.2659 129.424 28.97 129.348 28.6455 129.348C28.3274 129.348 28.0315 129.427 27.7579 129.586C27.4906 129.739 27.2743 129.965 27.1088 130.264C26.9498 130.557 26.8702 130.897 26.8702 131.285C26.8702 131.68 26.9498 132.027 27.1088 132.326C27.2743 132.618 27.4906 132.844 27.7579 133.003C28.0315 133.156 28.3274 133.232 28.6455 133.232C28.97 133.232 29.2659 133.156 29.5332 133.003C29.8068 132.844 30.0231 132.618 30.1822 132.326C30.3413 132.027 30.4208 131.677 30.4208 131.276ZM34.2079 133.996C33.7179 133.996 33.2725 133.885 32.8717 133.662C32.4772 133.439 32.1654 133.124 31.9363 132.717C31.7136 132.303 31.6022 131.826 31.6022 131.285C31.6022 130.751 31.7168 130.28 31.9458 129.873C32.1813 129.459 32.4994 129.144 32.9003 128.928C33.3012 128.705 33.7498 128.594 34.2461 128.594C34.7424 128.594 35.191 128.705 35.5919 128.928C35.9927 129.144 36.3077 129.456 36.5368 129.863C36.7722 130.271 36.8899 130.745 36.8899 131.285C36.8899 131.826 36.769 132.303 36.5272 132.717C36.2918 133.124 35.9705 133.439 35.5632 133.662C35.156 133.885 34.7042 133.996 34.2079 133.996ZM34.2079 133.232C34.5197 133.232 34.8124 133.159 35.086 133.013C35.3596 132.867 35.5791 132.647 35.7446 132.354C35.9164 132.062 36.0023 131.705 36.0023 131.285C36.0023 130.865 35.9196 130.509 35.7541 130.216C35.5887 129.924 35.3723 129.707 35.1051 129.567C34.8378 129.421 34.5483 129.348 34.2365 129.348C33.9184 129.348 33.6257 129.421 33.3584 129.567C33.0975 129.707 32.8876 129.924 32.7285 130.216C32.5694 130.509 32.4899 130.865 32.4899 131.285C32.4899 131.712 32.5662 132.071 32.7189 132.364C32.878 132.657 33.088 132.876 33.3489 133.023C33.6098 133.163 33.8961 133.232 34.2079 133.232ZM38.3755 129.529C38.5282 129.23 38.7446 128.998 39.0245 128.832C39.3109 128.667 39.6577 128.584 40.0649 128.584V129.481H39.8358C38.8623 129.481 38.3755 130.01 38.3755 131.066V133.91H37.507V128.68H38.3755V129.529ZM40.2181 131.276C40.2181 130.741 40.3262 130.274 40.5426 129.873C40.7589 129.466 41.0548 129.151 41.4302 128.928C41.812 128.705 42.2351 128.594 42.6996 128.594C43.1578 128.594 43.5555 128.692 43.8927 128.89C44.2299 129.087 44.4813 129.335 44.6467 129.634V128.68H45.5248V133.91H44.6467V132.937C44.4749 133.242 44.2172 133.497 43.8736 133.7C43.5364 133.897 43.1419 133.996 42.6901 133.996C42.2256 133.996 41.8056 133.882 41.4302 133.652C41.0548 133.423 40.7589 133.102 40.5426 132.688C40.3262 132.275 40.2181 131.804 40.2181 131.276ZM44.6467 131.285C44.6467 130.891 44.5672 130.547 44.4081 130.255C44.249 129.962 44.0327 129.739 43.7591 129.586C43.4918 129.427 43.196 129.348 42.8714 129.348C42.5469 129.348 42.251 129.424 41.9838 129.577C41.7165 129.73 41.5034 129.952 41.3443 130.245C41.1852 130.538 41.1057 130.881 41.1057 131.276C41.1057 131.677 41.1852 132.027 41.3443 132.326C41.5034 132.618 41.7165 132.844 41.9838 133.003C42.251 133.156 42.5469 133.232 42.8714 133.232C43.196 133.232 43.4918 133.156 43.7591 133.003C44.0327 132.844 44.249 132.618 44.4081 132.326C44.5672 132.027 44.6467 131.68 44.6467 131.285ZM47.5271 129.396V132.478C47.5271 132.733 47.5812 132.914 47.6893 133.023C47.7975 133.124 47.9852 133.175 48.2525 133.175H48.892V133.91H48.1093C47.6257 133.91 47.263 133.799 47.0212 133.576C46.7794 133.353 46.6585 132.988 46.6585 132.478V129.396H45.9809V128.68H46.6585V127.363H47.5271V128.68H48.892V129.396H47.5271ZM51.7005 133.996C51.2106 133.996 50.7652 133.885 50.3643 133.662C49.9698 133.439 49.658 133.124 49.4289 132.717C49.2062 132.303 49.0949 131.826 49.0949 131.285C49.0949 130.751 49.2094 130.28 49.4385 129.873C49.6739 129.459 49.992 129.144 50.3929 128.928C50.7938 128.705 51.2424 128.594 51.7387 128.594C52.235 128.594 52.6836 128.705 53.0845 128.928C53.4853 129.144 53.8003 129.456 54.0294 129.863C54.2648 130.271 54.3825 130.745 54.3825 131.285C54.3825 131.826 54.2616 132.303 54.0198 132.717C53.7844 133.124 53.4631 133.439 53.0558 133.662C52.6486 133.885 52.1968 133.996 51.7005 133.996ZM51.7005 133.232C52.0123 133.232 52.305 133.159 52.5786 133.013C52.8522 132.867 53.0718 132.647 53.2372 132.354C53.409 132.062 53.4949 131.705 53.4949 131.285C53.4949 130.865 53.4122 130.509 53.2467 130.216C53.0813 129.924 52.865 129.707 52.5977 129.567C52.3305 129.421 52.0409 129.348 51.7292 129.348C51.411 129.348 51.1183 129.421 50.8511 129.567C50.5902 129.707 50.3802 129.924 50.2211 130.216C50.062 130.509 49.9825 130.865 49.9825 131.285C49.9825 131.712 50.0589 132.071 50.2116 132.364C50.3706 132.657 50.5806 132.876 50.8415 133.023C51.1024 133.163 51.3887 133.232 51.7005 133.232ZM55.8681 129.529C56.0208 129.23 56.2372 128.998 56.5172 128.832C56.8035 128.667 57.1503 128.584 57.5575 128.584V129.481H57.3284C56.3549 129.481 55.8681 130.01 55.8681 131.066V133.91H54.9996V128.68H55.8681V129.529ZM62.5402 128.68L59.3905 136.373H58.4933L59.5241 133.853L57.4148 128.68H58.3788L60.0205 132.918L61.643 128.68H62.5402ZM67.0364 129.396H65.9388V133.91H65.0703V129.396H64.3926V128.68H65.0703V128.308C65.0703 127.722 65.2198 127.296 65.5189 127.029C65.8243 126.755 66.3111 126.618 66.9792 126.618V127.344C66.5974 127.344 66.327 127.42 66.1679 127.573C66.0152 127.719 65.9388 127.964 65.9388 128.308V128.68H67.0364V129.396ZM69.8053 133.996C69.3154 133.996 68.87 133.885 68.4691 133.662C68.0746 133.439 67.7628 133.124 67.5337 132.717C67.311 132.303 67.1997 131.826 67.1997 131.285C67.1997 130.751 67.3142 130.28 67.5433 129.873C67.7787 129.459 68.0969 129.144 68.4977 128.928C68.8986 128.705 69.3472 128.594 69.8435 128.594C70.3398 128.594 70.7884 128.705 71.1893 128.928C71.5902 129.144 71.9051 129.456 72.1342 129.863C72.3696 130.271 72.4873 130.745 72.4873 131.285C72.4873 131.826 72.3665 132.303 72.1247 132.717C71.8892 133.124 71.5679 133.439 71.1607 133.662C70.7534 133.885 70.3016 133.996 69.8053 133.996ZM69.8053 133.232C70.1171 133.232 70.4098 133.159 70.6834 133.013C70.957 132.867 71.1766 132.647 71.342 132.354C71.5138 132.062 71.5997 131.705 71.5997 131.285C71.5997 130.865 71.517 130.509 71.3515 130.216C71.1861 129.924 70.9698 129.707 70.7025 129.567C70.4353 129.421 70.1458 129.348 69.834 129.348C69.5158 129.348 69.2231 129.421 68.9559 129.567C68.695 129.707 68.485 129.924 68.3259 130.216C68.1668 130.509 68.0873 130.865 68.0873 131.285C68.0873 131.712 68.1637 132.071 68.3164 132.364C68.4755 132.657 68.6854 132.876 68.9463 133.023C69.2072 133.163 69.4935 133.232 69.8053 133.232ZM73.9729 129.529C74.1257 129.23 74.342 128.998 74.622 128.832C74.9083 128.667 75.2551 128.584 75.6623 128.584V129.481H75.4333C74.4597 129.481 73.9729 130.01 73.9729 131.066V133.91H73.1044V128.68H73.9729V129.529ZM82.092 132.431H79.1905L78.656 133.91H77.7397L80.1449 127.296H81.1471L83.5428 133.91H82.6265L82.092 132.431ZM81.8438 131.724L80.6412 128.365L79.4386 131.724H81.8438ZM84.9346 127.258V133.91H84.0661V127.258H84.9346ZM86.7872 132.708L85.7182 135.275H85.136L85.8327 132.708H86.7872ZM92.7796 133.91L91.1953 131.19H90.1454V133.91H89.2768V127.258H91.4243C91.927 127.258 92.3501 127.344 92.6937 127.515C93.0437 127.687 93.3046 127.919 93.4764 128.212C93.6482 128.505 93.7341 128.839 93.7341 129.214C93.7341 129.672 93.6005 130.076 93.3332 130.426C93.0723 130.776 92.6778 131.009 92.1497 131.123L93.82 133.91H92.7796ZM90.1454 130.493H91.4243C91.8952 130.493 92.2483 130.379 92.4838 130.15C92.7192 129.914 92.8369 129.602 92.8369 129.214C92.8369 128.82 92.7192 128.514 92.4838 128.298C92.2547 128.082 91.9016 127.973 91.4243 127.973H90.1454V130.493ZM96.8399 133.996C96.3499 133.996 95.9045 133.885 95.5036 133.662C95.1091 133.439 94.7974 133.124 94.5683 132.717C94.3456 132.303 94.2342 131.826 94.2342 131.285C94.2342 130.751 94.3488 130.28 94.5778 129.873C94.8133 129.459 95.1314 129.144 95.5323 128.928C95.9332 128.705 96.3817 128.594 96.8781 128.594C97.3744 128.594 97.823 128.705 98.2238 128.928C98.6247 129.144 98.9397 129.456 99.1688 129.863C99.4042 130.271 99.5219 130.745 99.5219 131.285C99.5219 131.826 99.401 132.303 99.1592 132.717C98.9238 133.124 98.6024 133.439 98.1952 133.662C97.788 133.885 97.3362 133.996 96.8399 133.996ZM96.8399 133.232C97.1517 133.232 97.4444 133.159 97.718 133.013C97.9916 132.867 98.2111 132.647 98.3766 132.354C98.5484 132.062 98.6343 131.705 98.6343 131.285C98.6343 130.865 98.5515 130.509 98.3861 130.216C98.2207 129.924 98.0043 129.707 97.7371 129.567C97.4698 129.421 97.1803 129.348 96.8685 129.348C96.5504 129.348 96.2577 129.421 95.9904 129.567C95.7295 129.707 95.5196 129.924 95.3605 130.216C95.2014 130.509 95.1219 130.865 95.1219 131.285C95.1219 131.712 95.1982 132.071 95.3509 132.364C95.51 132.657 95.72 132.876 95.9809 133.023C96.2418 133.163 96.5281 133.232 96.8399 133.232ZM101.007 129.653C101.186 129.341 101.447 129.087 101.79 128.89C102.134 128.692 102.525 128.594 102.964 128.594C103.435 128.594 103.858 128.705 104.234 128.928C104.609 129.151 104.905 129.466 105.121 129.873C105.338 130.274 105.446 130.741 105.446 131.276C105.446 131.804 105.338 132.275 105.121 132.688C104.905 133.102 104.606 133.423 104.224 133.652C103.849 133.882 103.429 133.996 102.964 133.996C102.512 133.996 102.115 133.897 101.771 133.7C101.434 133.503 101.179 133.252 101.007 132.946V133.91H100.139V126.847H101.007V129.653ZM104.558 131.276C104.558 130.881 104.479 130.538 104.319 130.245C104.16 129.952 103.944 129.73 103.67 129.577C103.403 129.424 103.107 129.348 102.783 129.348C102.465 129.348 102.169 129.427 101.895 129.586C101.628 129.739 101.412 129.965 101.246 130.264C101.087 130.557 101.007 130.897 101.007 131.285C101.007 131.68 101.087 132.027 101.246 132.326C101.412 132.618 101.628 132.844 101.895 133.003C102.169 133.156 102.465 133.232 102.783 133.232C103.107 133.232 103.403 133.156 103.67 133.003C103.944 132.844 104.16 132.618 104.319 132.326C104.479 132.027 104.558 131.677 104.558 131.276ZM108.345 133.996C107.855 133.996 107.41 133.885 107.009 133.662C106.614 133.439 106.303 133.124 106.074 132.717C105.851 132.303 105.74 131.826 105.74 131.285C105.74 130.751 105.854 130.28 106.083 129.873C106.319 129.459 106.637 129.144 107.038 128.928C107.438 128.705 107.887 128.594 108.383 128.594C108.88 128.594 109.328 128.705 109.729 128.928C110.13 129.144 110.445 129.456 110.674 129.863C110.909 130.271 111.027 130.745 111.027 131.285C111.027 131.826 110.906 132.303 110.664 132.717C110.429 133.124 110.108 133.439 109.7 133.662C109.293 133.885 108.841 133.996 108.345 133.996ZM108.345 133.232C108.657 133.232 108.95 133.159 109.223 133.013C109.497 132.867 109.716 132.647 109.882 132.354C110.054 132.062 110.14 131.705 110.14 131.285C110.14 130.865 110.057 130.509 109.891 130.216C109.726 129.924 109.51 129.707 109.242 129.567C108.975 129.421 108.686 129.348 108.374 129.348C108.056 129.348 107.763 129.421 107.496 129.567C107.235 129.707 107.025 129.924 106.866 130.216C106.707 130.509 106.627 130.865 106.627 131.285C106.627 131.712 106.704 132.071 106.856 132.364C107.015 132.657 107.225 132.876 107.486 133.023C107.747 133.163 108.033 133.232 108.345 133.232ZM112.704 129.396V132.478C112.704 132.733 112.758 132.914 112.866 133.023C112.974 133.124 113.162 133.175 113.429 133.175H114.069V133.91H113.286C112.802 133.91 112.44 133.799 112.198 133.576C111.956 133.353 111.835 132.988 111.835 132.478V129.396H111.157V128.68H111.835V127.363H112.704V128.68H114.069V129.396H112.704ZM115.045 127.83C114.879 127.83 114.739 127.773 114.625 127.658C114.51 127.544 114.453 127.404 114.453 127.239C114.453 127.073 114.51 126.933 114.625 126.819C114.739 126.704 114.879 126.647 115.045 126.647C115.204 126.647 115.337 126.704 115.445 126.819C115.56 126.933 115.617 127.073 115.617 127.239C115.617 127.404 115.56 127.544 115.445 127.658C115.337 127.773 115.204 127.83 115.045 127.83ZM115.464 128.68V133.91H114.596V128.68H115.464ZM116.095 131.285C116.095 130.745 116.204 130.274 116.42 129.873C116.636 129.466 116.935 129.151 117.317 128.928C117.705 128.705 118.147 128.594 118.644 128.594C119.286 128.594 119.815 128.75 120.228 129.062C120.648 129.373 120.925 129.806 121.059 130.36H120.123C120.034 130.041 119.859 129.79 119.598 129.606C119.344 129.421 119.026 129.329 118.644 129.329C118.147 129.329 117.747 129.501 117.441 129.844C117.136 130.181 116.983 130.662 116.983 131.285C116.983 131.915 117.136 132.402 117.441 132.746C117.747 133.089 118.147 133.261 118.644 133.261C119.026 133.261 119.344 133.172 119.598 132.994C119.853 132.816 120.028 132.561 120.123 132.23H121.059C120.919 132.765 120.639 133.194 120.219 133.519C119.799 133.837 119.274 133.996 118.644 133.996C118.147 133.996 117.705 133.885 117.317 133.662C116.935 133.439 116.636 133.124 116.42 132.717C116.204 132.31 116.095 131.833 116.095 131.285ZM123.544 133.996C123.143 133.996 122.784 133.929 122.466 133.796C122.147 133.656 121.896 133.465 121.712 133.223C121.527 132.975 121.425 132.692 121.406 132.373H122.303C122.329 132.634 122.45 132.848 122.666 133.013C122.889 133.178 123.178 133.261 123.535 133.261C123.865 133.261 124.126 133.188 124.317 133.042C124.508 132.895 124.604 132.711 124.604 132.488C124.604 132.259 124.502 132.09 124.298 131.982C124.095 131.868 123.78 131.756 123.353 131.648C122.965 131.546 122.647 131.444 122.399 131.343C122.157 131.235 121.947 131.079 121.769 130.875C121.597 130.665 121.511 130.391 121.511 130.054C121.511 129.787 121.591 129.542 121.75 129.319C121.909 129.097 122.135 128.922 122.427 128.794C122.72 128.661 123.054 128.594 123.43 128.594C124.009 128.594 124.476 128.74 124.833 129.033C125.189 129.326 125.38 129.726 125.405 130.236H124.537C124.518 129.962 124.406 129.742 124.203 129.577C124.005 129.411 123.738 129.329 123.401 129.329C123.089 129.329 122.841 129.396 122.656 129.529C122.472 129.663 122.38 129.838 122.38 130.054C122.38 130.226 122.434 130.369 122.542 130.484C122.656 130.592 122.796 130.681 122.962 130.751C123.134 130.815 123.369 130.888 123.668 130.97C124.044 131.072 124.349 131.174 124.584 131.276C124.82 131.371 125.02 131.518 125.186 131.715C125.358 131.912 125.447 132.17 125.453 132.488C125.453 132.774 125.373 133.032 125.214 133.261C125.055 133.49 124.829 133.672 124.537 133.805C124.25 133.932 123.92 133.996 123.544 133.996ZM127.849 131.276C127.849 130.741 127.957 130.274 128.174 129.873C128.39 129.466 128.686 129.151 129.061 128.928C129.443 128.705 129.866 128.594 130.331 128.594C130.789 128.594 131.187 128.692 131.524 128.89C131.861 129.087 132.113 129.335 132.278 129.634V128.68H133.156V133.91H132.278V132.937C132.106 133.242 131.848 133.497 131.505 133.7C131.168 133.897 130.773 133.996 130.321 133.996C129.857 133.996 129.437 133.882 129.061 133.652C128.686 133.423 128.39 133.102 128.174 132.688C127.957 132.275 127.849 131.804 127.849 131.276ZM132.278 131.285C132.278 130.891 132.198 130.547 132.039 130.255C131.88 129.962 131.664 129.739 131.39 129.586C131.123 129.427 130.827 129.348 130.503 129.348C130.178 129.348 129.882 129.424 129.615 129.577C129.348 129.73 129.135 129.952 128.976 130.245C128.816 130.538 128.737 130.881 128.737 131.276C128.737 131.677 128.816 132.027 128.976 132.326C129.135 132.618 129.348 132.844 129.615 133.003C129.882 133.156 130.178 133.232 130.503 133.232C130.827 133.232 131.123 133.156 131.39 133.003C131.664 132.844 131.88 132.618 132.039 132.326C132.198 132.027 132.278 131.68 132.278 131.285ZM136.647 128.584C137.284 128.584 137.799 128.778 138.194 129.167C138.588 129.548 138.785 130.102 138.785 130.827V133.91H137.926V130.951C137.926 130.43 137.796 130.032 137.535 129.758C137.274 129.478 136.918 129.338 136.466 129.338C136.008 129.338 135.642 129.481 135.368 129.768C135.101 130.054 134.967 130.471 134.967 131.018V133.91H134.099V128.68H134.967V129.424C135.139 129.157 135.371 128.95 135.664 128.804C135.963 128.657 136.291 128.584 136.647 128.584ZM139.355 131.276C139.355 130.741 139.463 130.274 139.679 129.873C139.895 129.466 140.191 129.151 140.567 128.928C140.949 128.705 141.375 128.594 141.846 128.594C142.253 128.594 142.632 128.689 142.982 128.88C143.331 129.065 143.599 129.31 143.783 129.615V126.847H144.661V133.91H143.783V132.927C143.611 133.239 143.357 133.497 143.02 133.7C142.682 133.897 142.288 133.996 141.836 133.996C141.372 133.996 140.949 133.882 140.567 133.652C140.191 133.423 139.895 133.102 139.679 132.688C139.463 132.275 139.355 131.804 139.355 131.276ZM143.783 131.285C143.783 130.891 143.704 130.547 143.545 130.255C143.386 129.962 143.169 129.739 142.896 129.586C142.628 129.427 142.332 129.348 142.008 129.348C141.683 129.348 141.388 129.424 141.12 129.577C140.853 129.73 140.64 129.952 140.481 130.245C140.322 130.538 140.242 130.881 140.242 131.276C140.242 131.677 140.322 132.027 140.481 132.326C140.64 132.618 140.853 132.844 141.12 133.003C141.388 133.156 141.683 133.232 142.008 133.232C142.332 133.232 142.628 133.156 142.896 133.003C143.169 132.844 143.386 132.618 143.545 132.326C143.704 132.027 143.783 131.68 143.783 131.285ZM151.556 132.431H148.655L148.12 133.91H147.204L149.609 127.296H150.611L153.007 133.91H152.091L151.556 132.431ZM151.308 131.724L150.105 128.365L148.903 131.724H151.308ZM158.169 128.68V133.91H157.3V133.137C157.135 133.404 156.903 133.614 156.604 133.767C156.311 133.913 155.986 133.987 155.63 133.987C155.223 133.987 154.857 133.904 154.532 133.738C154.208 133.567 153.95 133.312 153.759 132.975C153.575 132.638 153.483 132.227 153.483 131.744V128.68H154.342V131.629C154.342 132.144 154.472 132.542 154.733 132.822C154.994 133.096 155.35 133.232 155.802 133.232C156.266 133.232 156.632 133.089 156.899 132.803C157.167 132.517 157.3 132.1 157.3 131.553V128.68H158.169ZM160.17 129.396V132.478C160.17 132.733 160.224 132.914 160.332 133.023C160.44 133.124 160.628 133.175 160.895 133.175H161.535V133.91H160.752C160.269 133.91 159.906 133.799 159.664 133.576C159.422 133.353 159.301 132.988 159.301 132.478V129.396H158.624V128.68H159.301V127.363H160.17V128.68H161.535V129.396H160.17ZM164.343 133.996C163.853 133.996 163.408 133.885 163.007 133.662C162.613 133.439 162.301 133.124 162.072 132.717C161.849 132.303 161.738 131.826 161.738 131.285C161.738 130.751 161.852 130.28 162.081 129.873C162.317 129.459 162.635 129.144 163.036 128.928C163.437 128.705 163.885 128.594 164.381 128.594C164.878 128.594 165.326 128.705 165.727 128.928C166.128 129.144 166.443 129.456 166.672 129.863C166.908 130.271 167.025 130.745 167.025 131.285C167.025 131.826 166.904 132.303 166.663 132.717C166.427 133.124 166.106 133.439 165.699 133.662C165.291 133.885 164.84 133.996 164.343 133.996ZM164.343 133.232C164.655 133.232 164.948 133.159 165.221 133.013C165.495 132.867 165.715 132.647 165.88 132.354C166.052 132.062 166.138 131.705 166.138 131.285C166.138 130.865 166.055 130.509 165.89 130.216C165.724 129.924 165.508 129.707 165.241 129.567C164.973 129.421 164.684 129.348 164.372 129.348C164.054 129.348 163.761 129.421 163.494 129.567C163.233 129.707 163.023 129.924 162.864 130.216C162.705 130.509 162.625 130.865 162.625 131.285C162.625 131.712 162.702 132.071 162.854 132.364C163.013 132.657 163.223 132.876 163.484 133.023C163.745 133.163 164.032 133.232 164.343 133.232ZM173.932 128.584C174.339 128.584 174.702 128.67 175.02 128.842C175.338 129.007 175.59 129.259 175.774 129.596C175.959 129.933 176.051 130.344 176.051 130.827V133.91H175.192V130.951C175.192 130.43 175.062 130.032 174.801 129.758C174.546 129.478 174.199 129.338 173.76 129.338C173.309 129.338 172.949 129.485 172.682 129.777C172.415 130.064 172.281 130.48 172.281 131.028V133.91H171.422V130.951C171.422 130.43 171.292 130.032 171.031 129.758C170.776 129.478 170.429 129.338 169.99 129.338C169.539 129.338 169.179 129.485 168.912 129.777C168.645 130.064 168.511 130.48 168.511 131.028V133.91H167.642V128.68H168.511V129.434C168.683 129.16 168.912 128.95 169.198 128.804C169.491 128.657 169.812 128.584 170.162 128.584C170.601 128.584 170.989 128.683 171.327 128.88C171.664 129.077 171.915 129.367 172.081 129.749C172.227 129.38 172.469 129.093 172.806 128.89C173.143 128.686 173.519 128.584 173.932 128.584ZM176.626 131.276C176.626 130.741 176.735 130.274 176.951 129.873C177.167 129.466 177.463 129.151 177.839 128.928C178.22 128.705 178.643 128.594 179.108 128.594C179.566 128.594 179.964 128.692 180.301 128.89C180.638 129.087 180.89 129.335 181.055 129.634V128.68H181.933V133.91H181.055V132.937C180.883 133.242 180.626 133.497 180.282 133.7C179.945 133.897 179.55 133.996 179.098 133.996C178.634 133.996 178.214 133.882 177.839 133.652C177.463 133.423 177.167 133.102 176.951 132.688C176.735 132.275 176.626 131.804 176.626 131.276ZM181.055 131.285C181.055 130.891 180.976 130.547 180.816 130.255C180.657 129.962 180.441 129.739 180.167 129.586C179.9 129.427 179.604 129.348 179.28 129.348C178.955 129.348 178.659 129.424 178.392 129.577C178.125 129.73 177.912 129.952 177.753 130.245C177.594 130.538 177.514 130.881 177.514 131.276C177.514 131.677 177.594 132.027 177.753 132.326C177.912 132.618 178.125 132.844 178.392 133.003C178.659 133.156 178.955 133.232 179.28 133.232C179.604 133.232 179.9 133.156 180.167 133.003C180.441 132.844 180.657 132.618 180.816 132.326C180.976 132.027 181.055 131.68 181.055 131.285ZM183.935 129.396V132.478C183.935 132.733 183.99 132.914 184.098 133.023C184.206 133.124 184.394 133.175 184.661 133.175H185.3V133.91H184.518C184.034 133.91 183.671 133.799 183.43 133.576C183.188 133.353 183.067 132.988 183.067 132.478V129.396H182.389V128.68H183.067V127.363H183.935V128.68H185.3V129.396H183.935ZM186.276 127.83C186.111 127.83 185.971 127.773 185.856 127.658C185.742 127.544 185.685 127.404 185.685 127.239C185.685 127.073 185.742 126.933 185.856 126.819C185.971 126.704 186.111 126.647 186.276 126.647C186.435 126.647 186.569 126.704 186.677 126.819C186.792 126.933 186.849 127.073 186.849 127.239C186.849 127.404 186.792 127.544 186.677 127.658C186.569 127.773 186.435 127.83 186.276 127.83ZM186.696 128.68V133.91H185.828V128.68H186.696ZM189.933 133.996C189.443 133.996 188.997 133.885 188.597 133.662C188.202 133.439 187.89 133.124 187.661 132.717C187.438 132.303 187.327 131.826 187.327 131.285C187.327 130.751 187.442 130.28 187.671 129.873C187.906 129.459 188.224 129.144 188.625 128.928C189.026 128.705 189.475 128.594 189.971 128.594C190.467 128.594 190.916 128.705 191.317 128.928C191.718 129.144 192.033 129.456 192.262 129.863C192.497 130.271 192.615 130.745 192.615 131.285C192.615 131.826 192.494 132.303 192.252 132.717C192.017 133.124 191.695 133.439 191.288 133.662C190.881 133.885 190.429 133.996 189.933 133.996ZM189.933 133.232C190.245 133.232 190.537 133.159 190.811 133.013C191.084 132.867 191.304 132.647 191.469 132.354C191.641 132.062 191.727 131.705 191.727 131.285C191.727 130.865 191.644 130.509 191.479 130.216C191.314 129.924 191.097 129.707 190.83 129.567C190.563 129.421 190.273 129.348 189.961 129.348C189.643 129.348 189.351 129.421 189.083 129.567C188.822 129.707 188.612 129.924 188.453 130.216C188.294 130.509 188.215 130.865 188.215 131.285C188.215 131.712 188.291 132.071 188.444 132.364C188.603 132.657 188.813 132.876 189.074 133.023C189.335 133.163 189.621 133.232 189.933 133.232ZM195.78 128.584C196.417 128.584 196.932 128.778 197.326 129.167C197.721 129.548 197.918 130.102 197.918 130.827V133.91H197.059V130.951C197.059 130.43 196.929 130.032 196.668 129.758C196.407 129.478 196.051 129.338 195.599 129.338C195.141 129.338 194.775 129.481 194.501 129.768C194.234 130.054 194.1 130.471 194.1 131.018V133.91H193.232V128.68H194.1V129.424C194.272 129.157 194.504 128.95 194.797 128.804C195.096 128.657 195.424 128.584 195.78 128.584Z" fill="black"/>
<path d="M16.2499 123.912L16.2058 92.2502H23.4818V116.724H56.4222V124L16.2499 123.912ZM106.327 124H97.9491L94.1126 118.047H70.0798L66.3316 124H57.9532L77.444 92.2502H86.7925L106.327 124ZM81.6773 99.5262L74.3572 110.771H89.9675L82.6033 99.5262H81.6773ZM147.81 124H138.947L132.641 114.828H113.812V124H106.536V92.2502H138.462C139.843 92.2502 141.122 92.5001 142.298 92.9999C143.503 93.4996 144.547 94.1611 145.429 94.9842C146.34 95.8074 147.046 96.7628 147.546 97.8505C148.075 98.9089 148.339 99.9966 148.339 101.114V105.744C148.339 106.685 148.134 107.64 147.722 108.61C147.34 109.58 146.811 110.477 146.135 111.3C145.488 112.123 144.723 112.829 143.842 113.417C142.989 113.975 142.107 114.343 141.196 114.519L147.81 124ZM141.063 103.98V102.922C141.063 101.981 140.681 101.187 139.917 100.54C139.153 99.8643 138.138 99.5262 136.874 99.5262H113.812V107.552H136.874C138.344 107.552 139.402 107.184 140.049 106.449C140.725 105.685 141.063 104.862 141.063 103.98ZM196.916 124H188.537L184.701 118.047H160.668L156.92 124H148.541L168.032 92.2502H177.381L196.916 124ZM172.265 99.5262L164.945 110.771H180.556L173.191 99.5262H172.265Z" fill="black"/>
</svg>
